<svg id="Capa_1" enable-background="new 0 0 512 512"  viewBox="0 0 512 512" xmlns="http://www.w3.org/2000/svg"><g><path d="m61.396 234.611c4.628 53.643 49.775 95.889 104.604 95.889h30v-60h-.253c-2.675-91.414-78.693-165-170.742-165h-10.005c-8.291 0-15 6.709-15 15v7.925c0 44.077 23.925 83.979 61.396 106.186z"/><path d="m436 45.5c8.291 0 15-6.709 15-15s-6.709-15-15-15c-81.892 0-152.637 51.002-180.002 125.327-27.369-74.328-98.111-125.327-179.998-125.327-8.291 0-15 6.709-15 15s6.709 15 15 15c76.767 0 141.573 53.275 158.167 129.706-4.975 5.354-8.167 12.409-8.167 20.294v211c0 16.567 13.431 30 30 30s30-13.433 30-30v-211c0-7.982-3.234-15.141-8.317-20.515 15.46-75.297 80.845-129.485 158.317-129.485z"/><path d="m61 429c0 37.278 30.222 67.5 67.5 67.5s67.5-30.222 67.5-67.5v-68.5h-67.5c-37.278 0-67.5 31.22-67.5 68.5z"/><path d="m497 105.5h-10.005c-92.049 0-168.067 73.586-170.742 165h-.253v60h30c54.829 0 99.976-42.246 104.604-95.889 37.471-22.207 61.396-62.109 61.396-106.186v-7.925c0-8.291-6.709-15-15-15z"/><path d="m383.5 496.5c37.278 0 67.5-30.222 67.5-67.5 0-37.28-30.222-68.5-67.5-68.5h-67.5v68.5c0 37.278 30.222 67.5 67.5 67.5z"/></g></svg>