<svg id="Capa_1" enable-background="new 0 0 512 512" viewBox="0 0 512 512"  xmlns="http://www.w3.org/2000/svg"><g><path d="m226 271h-.253c-2.675-91.414-78.693-165-170.742-165h-40.005c-8.291 0-15 6.709-15 15v7.925c0 44.077 22.925 83.979 60.396 106.187 4.628 53.642 50.775 95.888 105.604 95.888l38.125 30 21.875-30 30-31.25z" fill="#7ed8f6"/><path d="m166 331h-22.5c-45.564 0-83.5 36.936-83.5 82.5s37.936 82.5 83.5 82.5 82.5-36.936 82.5-82.5v-7.5l30-27.5-30-47.5z" fill="#6aa9ff"/><path d="m497 106h-40.005c-92.049 0-168.067 73.586-170.742 165h-.253l-30 29.375 30 30.625 29.375 30 30.625-30c54.829 0 100.976-42.246 105.604-95.889 37.471-22.207 60.396-62.109 60.396-106.186v-7.925c0-8.291-6.709-15-15-15z" fill="#6aa9ff"/><path d="m286 406v7.5c0 45.564 36.936 82.5 82.5 82.5s83.5-36.936 83.5-82.5-37.936-82.5-83.5-82.5h-22.5-60l-30 43.125z" fill="#4895ff"/><path d="m436 16c-81.89 0-152.631 51-180 125.323 0 .002-.002.002-.002.004-27.369-74.328-98.111-125.327-179.998-125.327-8.291 0-15 6.709-15 15s6.709 15 15 15c79.556 0 146.792 56.953 160.269 137.886l19.731-1.218 20.142-1.243c13.066-78.472 80.302-135.425 159.858-135.425 8.291 0 15-6.709 15-15s-6.709-15-15-15z" fill="#5b362a"/><path d="m436 46c8.291 0 15-6.709 15-15s-6.709-15-15-15c-81.89 0-152.631 51-180 125.323v41.345l20.142-1.243c13.066-78.472 80.302-135.425 159.858-135.425z" fill="#38211a"/><path d="m256 166c-16.569 0-30 13.431-30 30v75 60 75c0 16.567 13.431 30 30 30s30-13.433 30-30v-75-60-75c0-16.569-13.431-30-30-30z" fill="#704c55"/><path d="m286 406v-75-60-75c0-16.569-13.431-30-30-30v270c16.569 0 30-13.433 30-30z" fill="#5b362a"/></g></svg>