<svg id="Capa_1" enable-background="new 0 0 512 512"  viewBox="0 0 512 512"  xmlns="http://www.w3.org/2000/svg"><g><path d="m497 106h-55c-62.299 0-116.915 33.297-146.81 82.925-4.045-7.154-9.988-13.093-17.145-17.133 16.769-73.454 81.697-125.792 157.955-125.792 8.284 0 15-6.716 15-15s-6.716-15-15-15c-79.486 0-151.722 49.168-180 125.112-28.292-75.982-100.559-125.112-180-125.112-8.284 0-15 6.716-15 15s6.716 15 15 15c76.258 0 141.187 52.339 157.955 125.792-7.157 4.04-13.1 9.979-17.146 17.133-29.894-49.628-84.51-82.925-146.809-82.925h-55c-8.284 0-15 6.716-15 15v22.918c0 42.974 22.457 83.631 60.395 106.184 2.806 32.208 20.357 60.3 45.911 77.616-27.769 15.663-46.306 44.868-46.306 78.282 0 49.55 41.051 90 91 90 40.636 0 75.063-27.074 86.204-64.129 5.724 2.643 12.088 4.129 18.796 4.129s13.072-1.486 18.796-4.129c11.142 37.055 45.568 64.129 86.204 64.129 49.922 0 91-40.431 91-90 0-33.491-18.626-62.669-46.306-78.282 25.554-17.315 43.105-45.408 45.911-77.616 36.728-21.833 60.395-61.785 60.395-106.184v-22.918c0-8.284-6.716-15-15-15zm-286 300c0 33.084-26.916 60-60 60-33.636 0-61-26.916-61-60s27.364-60 61-60h60zm0-90h-45c-41.906 0-76-33.645-76-75 0-5.682-3.21-10.875-8.292-13.417-31.895-15.947-51.708-48.005-51.708-83.665v-7.918h40c77.748 0 141 62.804 141 140zm60 75c0 8.271-6.729 15-15 15s-15-6.729-15-15v-180c0-8.271 6.729-15 15-15s15 6.729 15 15zm151 15c0 33.084-27.364 60-61 60-33.084 0-60-26.916-60-60 0-17.847 0-41.78 0-60h60c33.636 0 61 26.916 61 60zm60-262.082c0 35.66-19.813 67.718-51.708 83.666-5.082 2.541-8.292 7.734-8.292 13.416 0 41.355-34.094 75-76 75h-45v-40c0-77.196 63.252-140 141-140h40z"/></g></svg>